<svg width="18" height="18" viewBox="0 0 18 18" fill="none" xmlns="http://www.w3.org/2000/svg">
<g clip-path="url(#clip0)">
<path d="M4.25391 0V3.33984C4.25391 6.40997 6.25697 9.02004 9 9.97868C11.743 9.02004 13.7461 6.40997 13.7461 3.33984V0H4.25391Z" fill="black" fill-opacity="0.4"/>
<path d="M4.02676 6.88423C2.31585 5.4624 1.21655 3.37437 1.07118 1.05469H3.19922V0H0V0.527344C0 1.60017 0.180914 2.65212 0.53775 3.65393C0.882633 4.62217 1.38364 5.52234 2.02686 6.32946C2.97882 7.524 4.21611 8.46671 5.60345 9.07225C4.95918 8.4349 4.42607 7.69461 4.02676 6.88423Z" fill="black" fill-opacity="0.4"/>
<path d="M14.8008 0V1.05469H16.9288C16.7834 3.37437 15.6841 5.4624 13.9732 6.88423C13.5739 7.69465 13.0408 8.4349 12.3965 9.07225C13.7838 8.46671 15.0211 7.524 15.9731 6.32946C16.6163 5.52234 17.1173 4.62217 17.4622 3.65393C17.8191 2.65212 18 1.60017 18 0.527344V0H14.8008Z" fill="black" fill-opacity="0.4"/>
<path d="M13.043 16.9454V12.7267H10.0547V10.6897C9.82522 10.7947 9.58961 10.89 9.34794 10.9744L9 11.096L8.65206 10.9744C8.41039 10.89 8.17478 10.7947 7.94531 10.6897V12.7267H4.95703V16.9454H3.90234V18.0001H14.0977V16.9454H13.043ZM10.582 15.5392H7.41797V14.4845H10.582V15.5392Z" fill="black" fill-opacity="0.4"/>
</g>
<defs>
<clipPath id="clip0">
<rect width="18" height="18" fill="white"/>
</clipPath>
</defs>
</svg>
