<svg width="18" height="18" viewBox="0 0 18 18" fill="none" xmlns="http://www.w3.org/2000/svg">
<path d="M10.0669 9.26709L8.06738 9.26751V11.7781H10.0668C10.759 11.7781 11.3221 11.2149 11.3221 10.5226C11.3222 10.1892 11.1911 9.87441 10.953 9.6363C10.7149 9.39819 10.4002 9.26705 10.0669 9.26709Z" fill="black" fill-opacity="0.4"/>
<path d="M10.7808 7.21723C10.7808 6.953 10.6768 6.70353 10.488 6.51471C10.2992 6.32588 10.0497 6.22189 9.78555 6.22192H8.06738V8.21219H9.80176C10.343 8.20344 10.7808 7.76064 10.7808 7.21723Z" fill="black" fill-opacity="0.4"/>
<path d="M9 2.95312C5.66575 2.95312 2.95312 5.66575 2.95312 9C2.95312 12.3343 5.66575 15.0469 9 15.0469C12.3343 15.0469 15.0469 12.3343 15.0469 9C15.0469 5.66575 12.3343 2.95312 9 2.95312ZM10.0664 12.8327H9.52734V13.8516H8.47266V12.8327H6.15097V11.778H7.01223V6.22199H6.15097V5.1673H8.47266V4.14844H9.52734V5.1673H9.78504C10.3309 5.16727 10.8453 5.38095 11.2333 5.769C11.6214 6.15705 11.835 6.67143 11.835 7.21733C11.835 7.74025 11.6379 8.21781 11.3145 8.58034C11.4513 8.66893 11.5802 8.77222 11.6983 8.89042C12.1356 9.32776 12.3764 9.90738 12.3763 10.5225C12.3764 11.7964 11.3401 12.8327 10.0664 12.8327V12.8327Z" fill="black" fill-opacity="0.4"/>
<path d="M15.364 2.63602C13.6641 0.936176 11.404 0 9 0C6.59602 0 4.33593 0.936176 2.63602 2.63602C0.936176 4.33593 0 6.59602 0 9C0 11.404 0.936176 13.6641 2.63602 15.364C4.33593 17.0638 6.59602 18 9 18C11.404 18 13.6641 17.0638 15.364 15.364C17.0638 13.6641 18 11.404 18 9C18 6.59602 17.0638 4.33593 15.364 2.63602V2.63602ZM9 16.1016C5.08419 16.1016 1.89844 12.9158 1.89844 9C1.89844 5.08419 5.08419 1.89844 9 1.89844C12.9158 1.89844 16.1016 5.08419 16.1016 9C16.1016 12.9158 12.9158 16.1016 9 16.1016V16.1016Z" fill="black" fill-opacity="0.4"/>
</svg>
