<svg width="20" height="16" viewBox="0 0 20 16" fill="none" xmlns="http://www.w3.org/2000/svg">
<path fill-rule="evenodd" clip-rule="evenodd" d="M6.42244 7.99984C6.42244 9.95539 8.02326 11.5465 9.99968 11.5465C11.9672 11.5465 13.568 9.95539 13.568 7.99984C13.568 6.03539 11.9672 4.44428 9.99968 4.44428C8.02326 4.44428 6.42244 6.03539 6.42244 7.99984ZM15.2582 2.54206C16.8233 3.75095 18.1558 5.51984 19.1127 7.73317C19.1842 7.90206 19.1842 8.09761 19.1127 8.25761C17.1989 12.6843 13.7915 15.3332 9.99967 15.3332H9.99073C6.2078 15.3332 2.80049 12.6843 0.886666 8.25761C0.815122 8.09761 0.815122 7.90206 0.886666 7.73317C2.80049 3.3065 6.2078 0.666504 9.99073 0.666504H9.99967C11.8956 0.666504 13.6932 1.32428 15.2582 2.54206ZM10.0008 10.2112C11.226 10.2112 12.2276 9.21566 12.2276 7.99788C12.2276 6.77121 11.226 5.77566 10.0008 5.77566C9.89344 5.77566 9.78612 5.78455 9.68774 5.80233C9.65197 6.7801 8.84709 7.56233 7.85441 7.56233H7.8097C7.78287 7.70455 7.76498 7.84677 7.76498 7.99788C7.76498 9.21566 8.76661 10.2112 10.0008 10.2112Z" fill="#F06111"/>
</svg>
