<svg width="10" height="8" viewBox="0 0 10 8" fill="none" xmlns="http://www.w3.org/2000/svg">
<path d="M4.15175 7.21849C4.10825 7.17697 3.92225 7.02023 3.76925 6.87422C2.807 6.01821 1.232 3.78514 0.75125 2.61636C0.674 2.43886 0.5105 1.9901 0.5 1.75033C0.5 1.52058 0.554 1.30157 0.6635 1.09258C0.8165 0.832053 1.05725 0.623061 1.3415 0.508545C1.53875 0.434825 2.129 0.320308 2.1395 0.320308C2.78525 0.205792 3.8345 0.142808 4.994 0.142808C6.09875 0.142808 7.10525 0.205792 7.76075 0.299552C7.77125 0.310288 8.50475 0.424804 8.756 0.550057C9.215 0.779805 9.5 1.22857 9.5 1.70882V1.75033C9.48875 2.0631 9.20375 2.72086 9.19325 2.72086C8.71175 3.82666 7.214 6.00819 6.21875 6.88496C6.21875 6.88496 5.963 7.13188 5.80325 7.23924C5.57375 7.40672 5.2895 7.48975 5.00525 7.48975C4.688 7.48975 4.3925 7.39599 4.15175 7.21849" fill="#161724" fill-opacity="0.5"/>
</svg>
