<svg width="15" height="15" viewBox="0 0 15 15" fill="none" xmlns="http://www.w3.org/2000/svg">
<g clip-path="url(#clip0)">
<path d="M14.9777 2.82609C14.438 3.06282 13.863 3.21973 13.2634 3.29593C13.8802 2.92767 14.351 2.34899 14.5723 1.65149C13.9972 1.99434 13.3623 2.23652 12.6857 2.37167C12.1396 1.79026 11.3614 1.43018 10.5124 1.43018C8.86528 1.43018 7.53922 2.76713 7.53922 4.40612C7.53922 4.64195 7.55917 4.86871 7.60815 5.08458C5.13469 4.96394 2.94604 3.77846 1.47576 1.97258C1.21907 2.41793 1.0685 2.92767 1.0685 3.47642C1.0685 4.5068 1.59911 5.42018 2.39004 5.94897C1.91204 5.9399 1.4431 5.80113 1.04583 5.58253C1.04583 5.5916 1.04583 5.60339 1.04583 5.61519C1.04583 7.06098 2.07711 8.26188 3.42949 8.53853C3.18731 8.60474 2.92337 8.63648 2.64945 8.63648C2.45897 8.63648 2.26668 8.6256 2.08618 8.58569C2.47167 9.76392 3.56554 10.6301 4.86621 10.6582C3.85398 11.4501 2.56872 11.9272 1.17735 11.9272C0.933357 11.9272 0.699344 11.9163 0.465332 11.8864C1.78324 12.7362 3.34513 13.2215 5.02948 13.2215C10.5043 13.2215 13.4975 8.68637 13.4975 4.75533C13.4975 4.62381 13.4929 4.49683 13.4866 4.37075C14.077 3.9517 14.5732 3.42835 14.9777 2.82609Z" fill="#B0AEAE"/>
</g>
<defs>
<clipPath id="clip0">
<rect width="14.5124" height="14.5124" fill="white" transform="translate(0.465332 0.0698242)"/>
</clipPath>
</defs>
</svg>
